<svg version="1.1" id="Layer_1" xmlns="http://www.w3.org/2000/svg" xmlns:xlink="http://www.w3.org/1999/xlink" x="0px" y="0px"
	 width="100%" viewBox="0 0 1024 1024" enable-background="new 0 0 1024 1024" xml:space="preserve">
<path fill="#ffffff" opacity="1.000000" stroke="none" 
	d="
M465.856506,695.318604 
	C422.614624,679.181213 390.735138,650.460693 368.562103,610.762329 
	C363.455688,601.619812 359.513367,591.865967 357.422607,581.471313 
	C355.216156,570.501770 359.741394,564.677551 370.770020,564.675964 
	C474.080475,564.661499 577.390930,564.658447 680.701355,564.667480 
	C691.211975,564.668396 696.355286,571.416626 693.828857,581.864502 
	C690.263794,596.607544 683.679382,610.098328 675.500549,622.685730 
	C655.512085,653.448303 629.013306,676.822571 595.195740,691.570374 
	C572.279297,701.564148 548.221924,706.340759 523.331299,706.139832 
	C503.753540,705.981873 484.643341,702.318420 465.856506,695.318604 
M619.500000,586.247559 
	C602.674988,586.248474 585.849976,586.249878 569.024963,586.250122 
	C512.719788,586.250916 456.414581,586.270142 400.109467,586.212585 
	C396.067474,586.208435 392.502960,586.958252 391.600372,591.336792 
	C390.744781,595.487305 392.590393,598.770203 396.522095,600.733398 
	C399.352020,602.146606 402.377472,601.838196 405.350800,601.841125 
	C458.990509,601.894531 512.630249,601.951904 566.270020,601.937866 
	C594.089172,601.930603 621.908386,601.814575 649.727295,601.680664 
	C655.367676,601.653503 659.709778,597.795837 659.602661,593.247253 
	C659.498230,588.807373 656.050354,586.232849 649.984985,586.215637 
	C640.156738,586.187683 630.328369,586.232239 619.500000,586.247559 
M610.431946,641.653870 
	C614.728455,641.501587 619.106445,642.237915 623.228760,640.294983 
	C627.322815,638.365295 629.612122,635.335388 628.542908,630.732971 
	C627.553467,626.474243 624.379456,625.269470 620.216919,625.273376 
	C557.067322,625.332031 493.917664,625.336182 430.768097,625.261353 
	C426.514984,625.256348 423.435577,626.653748 422.553680,630.847534 
	C421.643616,635.175232 424.007263,638.226135 427.734955,640.132080 
	C430.615417,641.604797 433.797852,641.678040 436.997803,641.676392 
	C494.482330,641.646545 551.966858,641.654236 610.431946,641.653870 
M552.787964,677.593994 
	C553.277893,677.504150 553.770813,677.427979 554.257385,677.322510 
	C558.617188,676.376953 562.020935,674.023743 561.404297,669.271240 
	C560.798340,664.601013 557.171387,663.082275 552.545288,663.258057 
	C546.395142,663.491821 540.229431,663.311340 534.070374,663.313660 
	C521.918762,663.318237 509.767120,663.351013 497.615662,663.314514 
	C494.723663,663.305786 492.413239,664.087158 491.023834,666.848267 
	C489.804230,669.271912 490.507507,671.432861 491.899292,673.401978 
	C494.215668,676.679260 497.571930,677.694336 501.477417,677.679199 
	C518.289673,677.614136 535.102234,677.641174 552.787964,677.593994 
z"/>
<path fill="#ffffff" opacity="1.000000" stroke="none" 
	d="
M653.579712,433.518860 
	C663.686646,452.131836 669.120972,471.708435 669.965393,492.464142 
	C670.316711,501.098206 669.479370,509.781769 667.823547,518.254395 
	C666.914246,522.907349 668.404480,523.866394 672.509155,523.729736 
	C677.835510,523.552307 683.181519,523.527222 688.504150,523.766907 
	C698.540039,524.218811 704.617920,531.985168 701.153259,539.928650 
	C698.723267,545.500000 693.908447,547.340820 688.130920,547.337280 
	C662.299866,547.321411 636.468872,547.334778 610.637817,547.334351 
	C607.471497,547.334290 604.297791,547.449646 601.140564,547.275452 
	C595.492065,546.963684 591.178772,542.945740 590.665649,537.740356 
	C589.981201,530.795837 592.592407,526.439270 598.656616,524.657593 
	C604.533264,522.931030 610.583374,523.914978 616.555115,523.720642 
	C620.717102,523.585205 624.926147,523.327820 629.043457,523.775696 
	C634.465332,524.365662 636.598145,521.579651 637.575928,516.931091 
	C642.433533,493.836182 640.422485,471.630249 629.245544,450.530121 
	C610.140808,414.463684 580.090942,393.679321 539.937744,388.415070 
	C500.246582,383.211365 466.182922,395.941284 439.018250,425.199371 
	C418.618408,447.171234 409.012756,473.606628 411.451965,503.858887 
	C411.862885,508.955017 412.748505,514.046326 414.294739,519.008667 
	C415.340271,522.364014 416.966278,523.867004 420.672546,523.768188 
	C429.498627,523.532776 438.337433,523.591064 447.167419,523.743408 
	C454.473480,523.869385 459.824371,528.219971 460.390503,534.121521 
	C461.139008,541.923889 456.218140,547.228149 447.801758,547.286011 
	C431.470612,547.398193 415.138214,547.332825 398.806335,547.335510 
	C386.640747,547.337524 374.475006,547.370361 362.309662,547.314026 
	C354.283478,547.276794 349.009583,542.593506 348.896454,535.569946 
	C348.794891,529.265564 353.896149,524.343567 361.448059,523.934814 
	C367.432678,523.610901 373.442688,523.682739 379.440826,523.710510 
	C382.677948,523.725464 383.979553,522.553833 383.384796,519.158997 
	C370.392670,444.995758 421.527863,378.237793 490.897156,363.132263 
	C539.963501,352.447784 584.707336,362.528625 623.463806,395.383270 
	C635.920593,405.943146 645.555603,418.900940 653.579712,433.518860 
z"/>
<path fill="#ffffff" opacity="1.000000" stroke="none" 
	d="
M562.392578,518.416626 
	C551.303650,528.648743 538.175720,533.398315 523.809387,533.034790 
	C506.161713,532.588318 491.858734,524.680603 481.744385,509.905731 
	C461.090973,479.735565 476.589294,433.534912 518.487427,427.816681 
	C539.895081,424.894989 561.518616,436.016083 571.913330,454.679230 
	C582.464050,473.622498 580.249756,496.843140 566.242493,514.011963 
	C565.085449,515.430237 563.856384,516.789673 562.392578,518.416626 
z"/>
</svg>